<?xml version="1.0" encoding="UTF-8"?>
<!DOCTYPE svg PUBLIC "-//W3C//DTD SVG 1.1//EN" "http://www.w3.org/Graphics/SVG/1.1/DTD/svg11.dtd">
<svg xmlns="http://www.w3.org/2000/svg" version="1.1" width="205px" height="122px" style="shape-rendering:geometricPrecision; text-rendering:geometricPrecision; image-rendering:optimizeQuality; fill-rule:evenodd; clip-rule:evenodd" xmlns:xlink="http://www.w3.org/1999/xlink">
<g><path style="opacity:1" fill="#cf483e" d="M 184.5,6.5 C 181.513,6.00218 178.513,5.50218 175.5,5C 145.502,4.50002 115.502,4.33335 85.5,4.5C 81.0192,4.42547 76.6859,5.09213 72.5,6.5C 74.734,4.5541 77.4006,3.38743 80.5,3C 113.5,2.33333 146.5,2.33333 179.5,3C 181.584,3.69724 183.251,4.8639 184.5,6.5 Z"/></g>
<g><path style="opacity:1" fill="#e93d32" d="M 85.5,4.5 C 115.502,4.33335 145.502,4.50002 175.5,5C 178.513,5.50218 181.513,6.00218 184.5,6.5C 184.077,8.78121 184.744,10.4479 186.5,11.5C 187.742,13.3888 187.742,15.3888 186.5,17.5C 185.094,17.9731 184.427,18.9731 184.5,20.5C 183.292,23.0442 181.292,24.3775 178.5,24.5C 155.5,24.5 132.5,24.5 109.5,24.5C 109.417,22.4305 108.417,22.0972 106.5,23.5C 103.519,22.2713 100.519,21.1046 97.5,20C 98.5,19.6667 99.5,19.3333 100.5,19C 96.4861,15.2921 94.1528,10.9588 93.5,6C 90.6353,5.8171 87.9686,5.3171 85.5,4.5 Z"/></g>
<g><path style="opacity:1" fill="#db352a" d="M 85.5,4.5 C 87.9686,5.3171 90.6353,5.8171 93.5,6C 94.1528,10.9588 96.4861,15.2921 100.5,19C 99.5,19.3333 98.5,19.6667 97.5,20C 100.519,21.1046 103.519,22.2713 106.5,23.5C 108.417,22.0972 109.417,22.4305 109.5,24.5C 103.5,24.5 97.5,24.5 91.5,24.5C 89.8072,22.8251 87.8072,21.4918 85.5,20.5C 86.1667,19.8333 86.8333,19.1667 87.5,18.5C 84.712,15.0899 82.0454,11.5899 79.5,8C 76.4248,7.86097 73.4248,8.36097 70.5,9.5C 71.1667,8.5 71.8333,7.5 72.5,6.5C 76.6859,5.09213 81.0192,4.42547 85.5,4.5 Z"/></g>
<g><path style="opacity:1" fill="#cd4747" d="M 184.5,6.5 C 185.931,7.78041 186.598,9.44708 186.5,11.5C 184.744,10.4479 184.077,8.78121 184.5,6.5 Z"/></g>
<g><path style="opacity:1" fill="#ab342f" d="M 72.5,6.5 C 71.8333,7.5 71.1667,8.5 70.5,9.5C 69.1667,10.1667 68.1667,11.1667 67.5,12.5C 66.609,13.1098 65.609,13.4431 64.5,13.5C 66.5691,10.4275 69.2358,8.09413 72.5,6.5 Z"/></g>
<g><path style="opacity:1" fill="#c0291e" d="M 67.5,12.5 C 67.3691,13.3764 67.7025,14.0431 68.5,14.5C 70.198,13.3192 71.8647,13.3192 73.5,14.5C 72.1667,15.1667 70.8333,15.8333 69.5,16.5C 71.3308,17.1889 73.3308,18.3555 75.5,20C 74.09,20.3678 73.09,21.2011 72.5,22.5C 74.9688,23.1681 77.3021,23.8347 79.5,24.5C 72.7453,25.1229 66.412,24.4563 60.5,22.5C 61.0421,19.0878 62.3754,16.0878 64.5,13.5C 65.609,13.4431 66.609,13.1098 67.5,12.5 Z"/></g>
<g><path style="opacity:1" fill="#cf2f24" d="M 91.5,24.5 C 87.5,24.5 83.5,24.5 79.5,24.5C 77.3021,23.8347 74.9688,23.1681 72.5,22.5C 73.09,21.2011 74.09,20.3678 75.5,20C 73.3308,18.3555 71.3308,17.1889 69.5,16.5C 70.8333,15.8333 72.1667,15.1667 73.5,14.5C 71.8647,13.3192 70.198,13.3192 68.5,14.5C 67.7025,14.0431 67.3691,13.3764 67.5,12.5C 68.1667,11.1667 69.1667,10.1667 70.5,9.5C 73.4248,8.36097 76.4248,7.86097 79.5,8C 82.0454,11.5899 84.712,15.0899 87.5,18.5C 86.8333,19.1667 86.1667,19.8333 85.5,20.5C 87.8072,21.4918 89.8072,22.8251 91.5,24.5 Z"/></g>
<g><path style="opacity:0.49" fill="#ca4947" d="M 186.5,17.5 C 186.573,19.0269 185.906,20.0269 184.5,20.5C 184.427,18.9731 185.094,17.9731 186.5,17.5 Z"/></g>
<g><path style="opacity:0.365" fill="#c1473b" d="M 60.5,22.5 C 66.412,24.4563 72.7453,25.1229 79.5,24.5C 83.5,24.5 87.5,24.5 91.5,24.5C 97.5,24.5 103.5,24.5 109.5,24.5C 132.5,24.5 155.5,24.5 178.5,24.5C 139.004,25.4986 99.3368,25.8319 59.5,25.5C 59.2627,24.209 59.596,23.209 60.5,22.5 Z"/></g>
<g><path style="opacity:0.736" fill="#a92920" d="M 88.5,40.5 C 88.5,39.1667 88.5,37.8333 88.5,36.5C 81.8333,36.5 75.1667,36.5 68.5,36.5C 65.6146,36.1936 62.9479,36.5269 60.5,37.5C 60.5,42.8333 60.5,48.1667 60.5,53.5C 60.5,59.8333 60.5,66.1667 60.5,72.5C 60.1667,72.5 59.8333,72.5 59.5,72.5C 59.5,60.1667 59.5,47.8333 59.5,35.5C 69.8548,35.1681 80.1881,35.5014 90.5,36.5C 90.0057,38.0255 89.339,39.3588 88.5,40.5 Z"/></g>
<g><path style="opacity:0.624" fill="#892722" d="M 129.5,34.5 C 132.674,35.0102 135.008,36.6769 136.5,39.5C 133.883,38.2141 131.55,36.5475 129.5,34.5 Z"/></g>
<g><path style="opacity:1" fill="#ae1e13" d="M 129.5,34.5 C 131.55,36.5475 133.883,38.2141 136.5,39.5C 136.5,39.8333 136.5,40.1667 136.5,40.5C 136.077,42.7812 136.744,44.4479 138.5,45.5C 138.5,51.5 138.5,57.5 138.5,63.5C 137.732,64.2625 137.232,65.2625 137,66.5C 135.48,62.7292 133.814,59.0625 132,55.5C 131.667,56.5 131.333,57.5 131,58.5C 128.569,55.583 127.402,52.2497 127.5,48.5C 126.325,48.719 125.325,48.3857 124.5,47.5C 125.711,46.2798 125.711,45.1131 124.5,44C 121.332,43.8915 118.665,42.7248 116.5,40.5C 117.791,39.4728 117.791,38.4728 116.5,37.5C 116.5,37.1667 116.5,36.8333 116.5,36.5C 117.058,35.2101 118.058,34.3768 119.5,34C 123.027,33.1925 126.36,33.3592 129.5,34.5 Z"/></g>
<g><path style="opacity:1" fill="#af1d13" d="M 60.5,37.5 C 62.8901,37.9126 65.2235,38.5793 67.5,39.5C 66.9747,40.1924 66.3081,40.6924 65.5,41C 67.1066,42.049 67.7733,43.549 67.5,45.5C 68.8333,45.5 70.1667,45.5 71.5,45.5C 71.9121,52.4367 75.0788,57.7701 81,61.5C 81.1345,64.2885 80.8011,66.9551 80,69.5C 82.1655,70.9125 83.9988,72.5792 85.5,74.5C 84.2101,75.0577 83.3768,76.0577 83,77.5C 82,76.5 81,75.5 80,74.5C 79.2607,76.2205 78.4274,77.8872 77.5,79.5C 72.9487,75.0666 69.9487,69.7333 68.5,63.5C 66.6096,63.7035 65.1096,63.0368 64,61.5C 63.6667,59.1667 63.3333,56.8333 63,54.5C 62.3292,53.7476 61.4959,53.4142 60.5,53.5C 60.5,48.1667 60.5,42.8333 60.5,37.5 Z"/></g>
<g><path style="opacity:1" fill="#b82117" d="M 60.5,37.5 C 62.9479,36.5269 65.6146,36.1936 68.5,36.5C 69.5676,37.4345 70.901,37.7678 72.5,37.5C 72.3433,38.8734 72.51,40.2068 73,41.5C 77.5706,48.201 81.4039,55.201 84.5,62.5C 85.1835,62.1373 85.8501,61.8039 86.5,61.5C 86.5,65.5 86.5,69.5 86.5,73.5C 86.5,73.8333 86.5,74.1667 86.5,74.5C 86.1667,74.5 85.8333,74.5 85.5,74.5C 83.9988,72.5792 82.1655,70.9125 80,69.5C 80.8011,66.9551 81.1345,64.2885 81,61.5C 75.0788,57.7701 71.9121,52.4367 71.5,45.5C 70.1667,45.5 68.8333,45.5 67.5,45.5C 67.7733,43.549 67.1066,42.049 65.5,41C 66.3081,40.6924 66.9747,40.1924 67.5,39.5C 65.2235,38.5793 62.8901,37.9126 60.5,37.5 Z"/></g>
<g><path style="opacity:1" fill="#921f1f" d="M 136.5,40.5 C 137.931,41.7804 138.598,43.4471 138.5,45.5C 136.744,44.4479 136.077,42.7812 136.5,40.5 Z"/></g>
<g><path style="opacity:1" fill="#bf261b" d="M 68.5,36.5 C 75.1667,36.5 81.8333,36.5 88.5,36.5C 88.5,37.8333 88.5,39.1667 88.5,40.5C 87.8826,40.6107 87.3826,40.944 87,41.5C 86.5004,48.1583 86.3337,54.825 86.5,61.5C 85.8501,61.8039 85.1835,62.1373 84.5,62.5C 81.4039,55.201 77.5706,48.201 73,41.5C 72.51,40.2068 72.3433,38.8734 72.5,37.5C 70.901,37.7678 69.5676,37.4345 68.5,36.5 Z"/></g>
<g><path style="opacity:1" fill="#ad3028" d="M 116.5,36.5 C 116.5,36.8333 116.5,37.1667 116.5,37.5C 114.203,39.6235 112.87,42.2901 112.5,45.5C 112.5,49.8333 112.5,54.1667 112.5,58.5C 112.666,62.8461 112.499,67.1794 112,71.5C 111.617,72.056 111.117,72.3893 110.5,72.5C 110.334,62.8276 110.5,53.1609 111,43.5C 111.912,40.2946 113.745,37.9612 116.5,36.5 Z"/></g>
<g><path style="opacity:0.761" fill="#ae2d25" d="M 88.5,40.5 C 87.9239,51.6499 87.2572,62.6499 86.5,73.5C 86.5,69.5 86.5,65.5 86.5,61.5C 86.3337,54.825 86.5004,48.1583 87,41.5C 87.3826,40.944 87.8826,40.6107 88.5,40.5 Z"/></g>
<g><path style="opacity:1" fill="#b82117" d="M 116.5,37.5 C 117.791,38.4728 117.791,39.4728 116.5,40.5C 118.665,42.7248 121.332,43.8915 124.5,44C 125.711,45.1131 125.711,46.2798 124.5,47.5C 125.325,48.3857 126.325,48.719 127.5,48.5C 127.402,52.2497 128.569,55.583 131,58.5C 131.333,57.5 131.667,56.5 132,55.5C 133.814,59.0625 135.48,62.7292 137,66.5C 137.232,65.2625 137.732,64.2625 138.5,63.5C 138.5,67.1667 138.5,70.8333 138.5,74.5C 137.883,74.6107 137.383,74.944 137,75.5C 135.76,72.588 134.094,69.9213 132,67.5C 131.667,68.1667 131.333,68.8333 131,69.5C 130.627,67.3018 130.127,65.1351 129.5,63C 126.306,58.4803 123.139,53.9803 120,49.5C 119.51,48.2068 119.343,46.8734 119.5,45.5C 117.167,44.1667 114.833,44.1667 112.5,45.5C 112.87,42.2901 114.203,39.6235 116.5,37.5 Z"/></g>
<g><path style="opacity:1" fill="#cc2d21" d="M 112.5,58.5 C 117.061,62.5721 120.227,67.5721 122,73.5C 124.506,75.8675 127.006,78.2008 129.5,80.5C 123.167,80.5 116.833,80.5 110.5,80.5C 110.5,78.5 110.5,76.5 110.5,74.5C 110.5,73.8333 110.5,73.1667 110.5,72.5C 111.117,72.3893 111.617,72.056 112,71.5C 112.499,67.1794 112.666,62.8461 112.5,58.5 Z"/></g>
<g><path style="opacity:1" fill="#a4170e" d="M 60.5,53.5 C 61.4959,53.4142 62.3292,53.7476 63,54.5C 63.3333,56.8333 63.6667,59.1667 64,61.5C 65.1096,63.0368 66.6096,63.7035 68.5,63.5C 69.9487,69.7333 72.9487,75.0666 77.5,79.5C 78.4274,77.8872 79.2607,76.2205 80,74.5C 81,75.5 82,76.5 83,77.5C 83.3768,76.0577 84.2101,75.0577 85.5,74.5C 85.8333,74.5 86.1667,74.5 86.5,74.5C 86.2671,76.0618 85.6005,77.3951 84.5,78.5C 81.6021,79.1179 78.9354,80.2845 76.5,82C 74.1902,82.4966 71.8568,82.6633 69.5,82.5C 69.1667,82.5 68.8333,82.5 68.5,82.5C 67.4923,80.6614 65.9923,79.3281 64,78.5C 63.074,76.3083 61.9073,74.3083 60.5,72.5C 60.5,66.1667 60.5,59.8333 60.5,53.5 Z"/></g>
<g><path style="opacity:1" fill="#c0261b" d="M 138.5,74.5 C 138.5,76.5 138.5,78.5 138.5,80.5C 135.5,80.5 132.5,80.5 129.5,80.5C 127.006,78.2008 124.506,75.8675 122,73.5C 120.227,67.5721 117.061,62.5721 112.5,58.5C 112.5,54.1667 112.5,49.8333 112.5,45.5C 114.833,44.1667 117.167,44.1667 119.5,45.5C 119.343,46.8734 119.51,48.2068 120,49.5C 123.139,53.9803 126.306,58.4803 129.5,63C 130.127,65.1351 130.627,67.3018 131,69.5C 131.333,68.8333 131.667,68.1667 132,67.5C 134.094,69.9213 135.76,72.588 137,75.5C 137.383,74.944 137.883,74.6107 138.5,74.5 Z"/></g>
<g><path style="opacity:0.914" fill="#871d16" d="M 59.5,72.5 C 59.8333,72.5 60.1667,72.5 60.5,72.5C 61.9073,74.3083 63.074,76.3083 64,78.5C 65.9923,79.3281 67.4923,80.6614 68.5,82.5C 63.6774,80.8846 60.6774,77.5513 59.5,72.5 Z"/></g>
<g><path style="opacity:0.987" fill="#bd3129" d="M 110.5,74.5 C 110.5,76.5 110.5,78.5 110.5,80.5C 116.833,80.5 123.167,80.5 129.5,80.5C 132.5,80.5 135.5,80.5 138.5,80.5C 138.5,80.8333 138.5,81.1667 138.5,81.5C 128.111,82.141 118.111,81.4743 108.5,79.5C 108.796,77.597 109.463,75.9303 110.5,74.5 Z"/></g>
<g><path style="opacity:0.115" fill="#9a3b34" d="M 108.5,79.5 C 118.111,81.4743 128.111,82.141 138.5,81.5C 128.347,82.4942 118.014,82.8276 107.5,82.5C 107.263,81.209 107.596,80.209 108.5,79.5 Z"/></g>
<g><path style="opacity:0.537" fill="#90221d" d="M 84.5,78.5 C 80.3167,83.1198 75.3167,84.4531 69.5,82.5C 71.8568,82.6633 74.1902,82.4966 76.5,82C 78.9354,80.2845 81.6021,79.1179 84.5,78.5 Z"/></g>
<g><path style="opacity:1" fill="#c84840" d="M 22.5,92.5 C 20.8984,94.0739 18.8984,94.7406 16.5,94.5C 18.1016,92.9261 20.1016,92.2594 22.5,92.5 Z"/></g>
<g><path style="opacity:1" fill="#e93d31" d="M 22.5,92.5 C 25.5,92.5 28.5,92.5 31.5,92.5C 43.9919,94.199 56.8252,95.199 70,95.5C 73.6667,94.8333 77.3333,94.1667 81,93.5C 82.3957,94.3943 83.8957,95.0609 85.5,95.5C 91.976,93.2963 98.6426,92.9629 105.5,94.5C 107.38,97.0913 109.38,99.5913 111.5,102C 110.688,104.582 111.521,106.749 114,108.5C 114.315,110.586 114.815,112.586 115.5,114.5C 84.5,114.5 53.5,114.5 22.5,114.5C 20.1515,112.659 17.4848,111.326 14.5,110.5C 14.7709,108.62 14.1042,107.287 12.5,106.5C 11.1667,104.5 11.1667,102.5 12.5,100.5C 14.7964,99.267 16.1298,97.267 16.5,94.5C 18.8984,94.7406 20.8984,94.0739 22.5,92.5 Z"/></g>
<g><path style="opacity:1" fill="#d23226" d="M 119.5,92.5 C 125.167,92.5 130.833,92.5 136.5,92.5C 136.5,94.5 136.5,96.5 136.5,98.5C 133.932,100.027 132.599,102.361 132.5,105.5C 132.5,106.167 132.167,106.5 131.5,106.5C 129.801,106.34 128.134,106.506 126.5,107C 127.756,107.417 128.423,108.25 128.5,109.5C 126.784,111.025 124.784,112.025 122.5,112.5C 120.802,109.096 121.469,106.262 124.5,104C 122.5,99.3333 119.167,96 114.5,94C 116.382,93.8019 118.048,93.3019 119.5,92.5 Z"/></g>
<g><path style="opacity:1" fill="#e33c30" d="M 31.5,92.5 C 60.8333,92.5 90.1667,92.5 119.5,92.5C 118.048,93.3019 116.382,93.8019 114.5,94C 119.167,96 122.5,99.3333 124.5,104C 121.469,106.262 120.802,109.096 122.5,112.5C 120.485,113.924 118.152,114.59 115.5,114.5C 114.815,112.586 114.315,110.586 114,108.5C 111.521,106.749 110.688,104.582 111.5,102C 109.38,99.5913 107.38,97.0913 105.5,94.5C 98.6426,92.9629 91.976,93.2963 85.5,95.5C 83.8957,95.0609 82.3957,94.3943 81,93.5C 77.3333,94.1667 73.6667,94.8333 70,95.5C 56.8252,95.199 43.9919,94.199 31.5,92.5 Z"/></g>
<g><path style="opacity:0.376" fill="#a93731" d="M 136.5,92.5 C 137.497,92.4701 138.164,92.9701 138.5,94C 138.101,95.7275 137.434,97.2275 136.5,98.5C 136.5,96.5 136.5,94.5 136.5,92.5 Z"/></g>
<g><path style="opacity:1" fill="#ce453b" d="M 16.5,94.5 C 16.1298,97.267 14.7964,99.267 12.5,100.5C 12.8449,97.8021 14.1782,95.8021 16.5,94.5 Z"/></g>
<g><path style="opacity:1" fill="#b6362f" d="M 136.5,98.5 C 135.921,101.331 134.588,103.664 132.5,105.5C 132.599,102.361 133.932,100.027 136.5,98.5 Z"/></g>
<g><path style="opacity:1" fill="#be3b31" d="M 131.5,106.5 C 130.833,107.833 129.833,108.833 128.5,109.5C 128.423,108.25 127.756,107.417 126.5,107C 128.134,106.506 129.801,106.34 131.5,106.5 Z"/></g>
<g><path style="opacity:0.722" fill="#c1473c" d="M 12.5,106.5 C 14.1042,107.287 14.7709,108.62 14.5,110.5C 13.3263,109.486 12.6596,108.153 12.5,106.5 Z"/></g>
<g><path style="opacity:1" fill="#ce463e" d="M 14.5,110.5 C 17.4848,111.326 20.1515,112.659 22.5,114.5C 18.9812,114.741 16.3145,113.407 14.5,110.5 Z"/></g>
</svg>
